# xmcd CD database file
#
# Track frame offsets:
#	150
#	32507
#	55162
#	83355
#
# Disc length: 1337 seconds
#
# Revision: 2
# Processed by: cddbd v1.5.1PL0 Copyright (c) Steve Scherf et al.
# Submitted via: CDex 1.51
#
DISCID=1f053704
DTITLE=Phil Collins and The Indescribable Din - Live From The Board
DYEAR=1995
DGENRE=Blues
TTITLE0=Sussudio
TTITLE1=Easy Lover
TTITLE2=Separate Lives
TTITLE3=My Girl
EXTD=YEAR: 1995
EXTT0=
EXTT1=
EXTT2=
EXTT3=
PLAYORDER=
